Coordinates
version=1
nRows=14
nColumns=33
inDegrees=yes

Units are S.I. units (second, meters, Newtons, ...)
Angles are in degrees.

endheader
time	ground_thorax_rot_x	ground_thorax_rot_y	ground_thorax_rot_z	ground_thorax_tx	ground_thorax_ty	ground_thorax_tz	clav_prot_r	clav_elev_r	scapula_abduction_r	scapula_elevation_r	scapula_upward_rot_r	scapula_winging_r	shoulder_elv_r	plane_of_elev_r	axial_rot_r	elbow_flexion_r	pro_sup_r	wrist_flex_r	wrist_dev_r	clav_prot_l	clav_elev_l	scapula_abduction_l	scapula_elevation_l	scapula_upward_rot_l	scapula_winging_l	shoulder_elv_l	plane_of_elev_l	axial_rot_l	elbow_flexion_l	pro_sup_l	wrist_flex_l	wrist_dev_l	
8.6800	-40.966104	-5.890938	2.226728	-58.640276	807.879378	8.295543	5.489877	-45.000000	44.999828	-45.000000	-10.146003	-4411.721100	-836.060566	150.374462	-107.192324	2171.923398	33.430991	17.941892	9.299518	16.914899	41.974170	-44.999961	-41.637930	-28.544365	799.856089	-2093.858156	24.413641	-24.321220	1445.615630	16.121308	12.859634	-18.783287	
8.6900	-40.696234	-6.095325	2.252532	-56.985213	805.788667	8.414816	5.671735	-45.000000	44.999692	-45.000000	-10.598758	-4411.378782	-836.208211	150.581526	-106.751927	2171.480273	29.634171	17.742524	9.524195	16.745505	41.734692	-44.999930	-41.242635	-28.304173	799.838451	-2093.963082	24.342714	-24.638837	1445.649520	18.486564	12.354809	-18.906420	
8.7000	-40.428059	-6.260731	2.241312	-55.468452	803.779764	8.500184	5.826401	-45.000000	44.999448	-45.000000	-11.029669	-4411.062551	-836.346512	150.758387	-106.374811	2171.063488	26.113422	17.553201	9.710117	16.549100	41.490649	-44.999874	-40.839872	-28.003229	799.800553	-2094.033456	24.229138	-24.912961	1445.688359	20.740498	11.897545	-19.035865	
8.7100	-40.160187	-6.461609	2.283349	-54.233334	801.951799	8.514812	5.972659	-45.000000	44.999012	-45.000000	-11.420868	-4410.851515	-836.490525	150.894835	-105.829725	2170.745951	23.493599	17.365153	9.838922	16.357862	41.166251	-44.999775	-40.443471	-27.830211	799.818615	-2094.108251	24.178353	-25.119673	1445.696969	22.591839	11.513639	-19.105083	
8.7200	-39.899588	-6.643792	2.310086	-53.317994	800.310604	8.453763	6.077247	-45.000000	44.998230	-45.000000	-11.752934	-4410.722854	-836.630078	150.992911	-105.249905	2170.501995	21.581627	17.200598	9.933500	16.185430	40.842805	-44.999597	-40.056427	-27.670000	799.865979	-2094.173128	24.134564	-25.225406	1445.682837	24.115512	11.198593	-19.141747	
8.7300	-39.658634	-6.793954	2.312583	-52.777839	798.872384	8.309609	6.148154	-45.000000	44.996829	-45.000000	-12.015983	-4410.655584	-836.755853	151.080256	-104.667522	2170.324998	20.328288	17.065750	9.994442	16.037648	40.550958	-44.999277	-39.711357	-27.536406	799.929900	-2094.234442	24.108264	-25.230023	1445.642490	25.312851	10.959562	-19.153493	
8.7400	-39.443174	-6.898809	2.267661	-52.636234	797.626969	8.086924	6.176764	-45.000000	44.994321	-45.000000	-12.215478	-4410.631499	-836.862817	151.169463	-104.143628	2170.191983	19.536897	16.974018	10.047015	15.929837	40.329716	-44.998705	-39.416615	-27.398791	800.004691	-2094.293406	24.082546	-25.124185	1445.573493	26.233403	10.790622	-19.155897	
8.7500	-39.263282	-6.959409	2.184132	-52.897066	796.549835	7.797826	6.182762	-45.000000	44.989823	-45.000000	-12.384370	-4410.623426	-836.945479	151.273630	-103.714507	2170.086664	19.013321	16.924823	10.094837	15.857385	40.191511	-44.997682	-39.200132	-27.276469	800.067963	-2094.356511	24.057117	-24.939365	1445.486160	26.921113	10.687438	-19.165542	
8.7600	-39.114734	-7.007274	2.088893	-53.557197	795.618035	7.458343	6.187138	-45.000000	44.981784	-45.000000	-12.573651	-4410.642782	-837.010768	151.382400	-103.372359	2169.992946	18.658576	16.916616	10.151097	15.820428	40.130965	-44.995845	-39.052036	-27.220758	800.135306	-2094.419061	24.037395	-24.708903	1445.378818	27.372486	10.639706	-19.180110	
8.7700	-39.000776	-7.059633	2.012461	-54.605877	794.807631	7.086297	6.218404	-45.000000	44.967329	-45.000000	-12.821930	-4410.675640	-837.053433	151.505229	-103.096798	2169.911698	18.421854	16.936193	10.200337	15.805378	40.123396	-44.992565	-38.982440	-27.282885	800.194120	-2094.474484	24.031669	-24.487959	1445.263963	27.581012	10.646992	-19.201989	
8.7800	-38.910701	-7.134703	1.966200	-56.026544	794.097399	6.699777	6.274451	-45.000000	44.941588	-45.000000	-13.155409	-4410.728022	-837.069500	151.626259	-102.864688	2169.845866	18.269798	16.981464	10.250932	15.815708	40.134333	-44.986660	-38.958675	-27.450904	800.260482	-2094.516901	24.022265	-24.307353	1445.146841	27.542565	10.695281	-19.226685	
8.7900	-38.845015	-7.230184	1.954048	-57.798260	793.467776	6.314793	6.353341	-45.000000	44.895059	-45.000000	-13.584087	-4410.795316	-837.059201	151.740052	-102.649867	2169.800962	18.174890	17.045346	10.299397	15.846874	40.157547	-44.976163	-38.978431	-27.706232	800.329783	-2094.549799	24.000507	-24.213698	1445.041514	27.279115	10.771283	-19.254827	
8.8000	-38.795896	-7.355059	1.977763	-59.898513	792.903934	5.944178	6.450259	-45.000000	44.812882	-45.000000	-14.121195	-4410.883841	-837.027373	151.835518	-102.426714	2169.769576	18.117555	17.125500	10.353182	15.897157	40.185402	-44.957140	-39.021518	-28.036174	800.416003	-2094.572945	23.959155	-24.240677	1444.948144	26.828957	10.856950	-19.280762	
8.8100	-38.772200	-7.514971	2.059863	-62.304647	792.393345	5.596249	6.571470	-45.000000	44.662413	-45.000000	-14.798101	-4410.979545	-836.982910	151.923496	-102.159342	2169.744807	18.072209	17.209833	10.402352	15.979262	40.219174	-44.923674	-39.114487	-28.497507	800.487934	-2094.578864	23.917484	-24.386854	1444.868247	26.240709	10.941195	-19.302168	
